<?xml version="1.0" encoding="UTF-8"?>
<svg width="16px" height="16px" viewBox="0 0 16 16" version="1.1" xmlns="http://www.w3.org/2000/svg" xmlns:xlink="http://www.w3.org/1999/xlink">
    <title>social-yelp</title>
    <g id="social-yelp" stroke="none" stroke-width="1" fill="none" fill-rule="evenodd">
        <path d="M6.60895503,10.4076196 C6.75742185,10.3611716 6.91670961,10.362986 7.06405877,10.4126273 C7.21140794,10.4622686 7.33927069,10.5572694 7.42937264,10.6839855 C7.48247582,10.7673017 7.52197843,10.858456 7.54639994,10.9541825 C7.60202873,11.1538365 7.60821213,11.3760613 7.60065706,11.5765863 C7.60075867,11.5770943 7.56775878,12.4472694 7.56775878,12.4472694 C7.55222046,12.9369334 7.53256713,13.4252184 7.50751422,13.9156808 C7.4926581,14.2345756 7.48339027,14.5057886 7.46318537,14.7366499 C7.45924454,14.780195 7.45360546,14.8276591 7.45135563,14.8672125 C7.42574389,15.1454653 7.38679285,15.3329267 7.32757159,15.4805444 C7.2910881,15.5804803 7.23326029,15.6711991 7.15813058,15.7464595 C7.07876248,15.8243325 6.98395767,15.8846424 6.87984147,15.9236152 C6.82633187,15.942267 6.77187154,15.9581609 6.7166782,15.9710067 C6.66144857,15.9817478 6.60569641,15.9895859 6.54965394,15.9944485 C6.48918439,16.0001093 6.42838825,16.0014883 6.36773727,15.9983675 C6.01120498,15.9779739 5.65894737,15.9106243 5.32005808,15.7981329 C4.91281034,15.6615466 4.52565137,15.4847538 4.17199306,15.2387243 C4.12234445,15.2037431 4.07536661,15.1651332 4.03143692,15.1232573 C3.99030863,15.0848651 3.95128501,15.0442957 3.91454026,15.0016215 C3.87918168,14.9573507 3.84608745,14.9112656 3.81538094,14.8636563 C3.7576257,14.7686555 3.72048903,14.6626234 3.7063877,14.5523093 C3.69348385,14.4464222 3.70397095,14.3390111 3.73710147,14.2375512 C3.7812126,14.0849258 3.86715599,13.9135761 4.01890321,13.6787957 C4.04169903,13.6462821 4.06661406,13.6054949 4.09060737,13.5689896 C4.21722184,13.3749965 4.37751114,13.1557472 4.56281706,12.8961462 C4.84682508,12.4940077 5.13323534,12.0981833 5.42365173,11.7033749 L5.42365173,11.7033749 L5.93603173,10.9985258 C5.96674549,10.9705844 5.99031062,10.9270394 6.01613283,10.8943806 C6.11791936,10.766213 6.229714,10.6384083 6.36246832,10.5400691 C6.40804546,10.5058137 6.45648932,10.4756225 6.50726284,10.4497857 C6.5400958,10.4333112 6.57408271,10.4191591 6.60895503,10.4076196 Z M9.06824835,9.85829892 C9.1251472,9.85931497 9.1819009,9.86519355 9.23785628,9.87593466 C9.40013414,9.90612589 9.55653341,9.97195148 9.70400595,10.0424944 C9.74152726,10.0605656 9.78195158,10.0893054 9.82172272,10.10099 L9.82172272,10.10099 L10.5894218,10.5081361 C11.0239287,10.7364573 11.4543715,10.9666654 11.8845239,11.2028247 C12.1645185,11.3548694 12.404234,11.4807872 12.6032348,11.6004635 C12.6405384,11.6228166 12.6809627,11.6485082 12.7154359,11.6677406 C12.9544256,11.8123101 13.1059623,11.9292285 13.212938,12.0465098 C13.2870371,12.1230765 13.3435005,12.2151017 13.378264,12.3159085 C13.4136081,12.4212149 13.4264538,12.5326902 13.4159305,12.6432946 C13.4093261,12.6995403 13.3997462,12.7554957 13.3873359,12.8107979 C13.3728934,12.8652292 13.3556931,12.9188622 13.3358076,12.9715517 C13.3145431,13.0284505 13.2892144,13.0837527 13.2598941,13.1370228 C13.0492086,13.5134697 12.7783585,13.8422348 12.4719465,14.1437842 C12.2164097,14.3936602 11.9291576,14.6087727 11.6174477,14.7835334 C11.5643953,14.8129263 11.5092382,14.8384002 11.452412,14.8597373 C11.3998676,14.8799857 11.3462346,14.8974037 11.2918033,14.9119913 C11.2365737,14.9246919 11.1806909,14.9343444 11.1243726,14.9410213 C11.0137682,14.9519802 10.9020026,14.9395698 10.7964785,14.9045887 C10.6961072,14.8698978 10.6044448,14.8137247 10.5280233,14.7399158 C10.4100162,14.6320693 10.2936058,14.4816937 10.148746,14.2427766 C10.129441,14.2081583 10.1038946,14.1679517 10.0813237,14.1305755 C9.96230063,13.931865 9.83522168,13.692077 9.68259631,13.4119372 C9.44585643,12.9824379 9.21499514,12.5515597 8.98689169,12.118214 L8.98689169,12.118214 L8.57691513,11.3498617 C8.48256753,11.1728512 8.39134067,10.9708022 8.35381936,10.7665033 C8.33509499,10.6700511 8.33153882,10.571349 8.3432234,10.4738081 C8.36869725,10.320457 8.44185292,10.1790807 8.55231218,10.0697827 C8.66277143,9.96041204 8.80487342,9.88878045 8.95836969,9.86497583 C8.99480238,9.8601133 9.03145279,9.85786347 9.06824835,9.85829892 Z M2.05259782,6.98636553 C2.20963575,6.98746867 2.39519569,7.02102738 2.65928911,7.10197036 C2.69628062,7.11474357 2.74176342,7.12744421 2.78300058,7.14014484 C3.00145879,7.20771223 3.25286609,7.3003906 3.54959652,7.40598732 C4.00716782,7.56623308 4.4604717,7.73054303 4.91380461,7.89906235 L4.91380461,7.89906235 L5.72160868,8.19393485 C5.8694441,8.24771298 6.01244602,8.31397402 6.14907584,8.39191964 C6.26514515,8.45752751 6.36731633,8.54512561 6.44988499,8.64992401 C6.50827889,8.73258702 6.55066999,8.82555568 6.57487377,8.9238949 C6.5759116,8.92839456 6.57689136,8.93267649 6.57792193,8.93717614 C6.62515378,9.14234586 6.59094915,9.35796639 6.48251474,9.53853317 C6.37408759,9.71917251 6.19988565,9.85060596 5.99660288,9.90532757 C5.96533754,9.9154155 5.93974031,9.92129408 5.92424553,9.92485026 L5.92424553,9.92485026 L5.18749972,10.0951114 L5.18544584,10.0943856 L2.73785162,10.6598906 C2.48657496,10.7179506 2.23452175,10.7818893 1.97434738,10.7632375 C1.80024704,10.750682 1.63290345,10.7355864 1.46730166,10.6212806 C1.37782458,10.5577049 1.30265713,10.4760579 1.24664369,10.3816377 C1.0141901,10.0136821 1.00283137,9.4708932 1.00012868,9.04799827 C0.99646291,8.58017937 1.07114483,8.11504575 1.22107331,7.6718298 C1.24088413,7.61522125 1.26480125,7.56013677 1.29263088,7.50693925 C1.31790515,7.45737047 1.34582405,7.4092532 1.37626712,7.36266001 C1.40870963,7.31701029 1.44350719,7.2730298 1.48051758,7.23093626 C1.55492154,7.15001505 1.64553151,7.08571354 1.74641812,7.04219753 C1.84323326,7.00157001 1.94771233,6.98251179 2.05259782,6.98636553 Z M11.8598484,4.70773333 C11.9694367,4.70261679 12.0789525,4.72069524 12.1811382,4.76080022 C12.2328117,4.78232599 12.2833239,4.80659509 12.3323847,4.83351318 C12.3801391,4.86205696 12.4263694,4.8930828 12.4708579,4.92646008 C12.5190477,4.96205815 12.5645523,5.00113257 12.6070087,5.043364 C12.9354835,5.37601909 13.2058982,5.76142899 13.4070763,6.18359817 C13.5894574,6.56502371 13.8161094,7.05806244 13.7672664,7.49220651 C13.7581945,7.60164971 13.7262615,7.70804476 13.673572,7.80442446 C13.5748699,7.9798384 13.4309535,8.06678333 13.2797071,8.15452659 C13.0541437,8.28545202 12.7994052,8.33857697 12.5483681,8.39663702 L12.5483681,8.39663702 L9.36290313,9.1326208 C9.34744464,9.13639471 9.32204336,9.14205556 9.28931201,9.14677294 C9.08261821,9.18683438 8.86859433,9.14503114 8.69223691,9.03021738 C8.51580692,8.91547619 8.39090522,8.73665122 8.34365885,8.53140893 C8.3426428,8.52690927 8.34162675,8.52262734 8.3406107,8.51812769 C8.31949135,8.41906272 8.31709638,8.31687702 8.33349834,8.21694115 C8.36187519,8.08652375 8.4154356,7.96292841 8.49105882,7.85304975 C8.57981813,7.72299523 8.6794637,7.60070624 8.78883433,7.48748913 L8.78883433,7.48748913 L9.3862723,6.86793027 C9.72019019,6.51747252 10.0562128,6.17080319 10.3973882,5.8260208 C10.6182341,5.60083488 10.8038086,5.40745861 10.9706586,5.25060211 C11.0021562,5.22107857 11.0372826,5.18976969 11.065224,5.16202424 C11.2674181,4.97404029 11.4194629,4.86177392 11.5599682,4.79192767 C11.6526466,4.74242422 11.7549774,4.713699 11.8598484,4.70773333 Z M6.04003906,0.0503189683 C6.64313063,-0.0331728431 7.5270224,-0.0774102509 7.94154216,0.46083622 C8.17637332,0.76606519 8.17905859,1.1930969 8.20097627,1.56502961 C8.21429379,1.79045504 8.20890509,2.01351451 8.19742009,2.23614852 L8.15728607,2.90471459 C8.09929859,4.08603351 8.02614292,5.26685892 7.95665955,6.44752467 C7.93601194,6.80089994 7.93658529,7.23311351 7.70574576,7.52312349 C7.6891551,7.5422833 7.67157016,7.56057222 7.65307078,7.57791766 C7.55063833,7.68685284 7.42008303,7.76523392 7.27589089,7.80442446 C7.26668111,7.80660171 7.25747133,7.80870638 7.24804383,7.81088364 C7.09189131,7.84717117 6.92851757,7.83621234 6.7786428,7.77945863 C6.7556873,7.77212855 6.73312371,7.76356469 6.71103186,7.75391221 C6.37680189,7.59446478 6.18849136,7.20466408 6.01574818,6.8969095 C5.43725956,5.86595161 4.857138,4.83608234 4.28758337,3.79974664 C4.07215153,3.40719534 3.83578179,3.03155404 3.66273379,2.61453769 C3.51996412,2.27052461 3.33593551,1.88491875 3.4135981,1.50795658 C3.55136009,0.841158614 4.36491211,0.493207604 4.94360394,0.303649506 C5.12137657,0.246717267 5.30307551,0.198584029 5.48665415,0.154512093 C5.67022553,0.110440882 5.85529922,0.0759626434 6.04003906,0.0503189683 Z" fill="#A3C5CF" fill-rule="nonzero"></path>
    </g>
</svg>