<?xml version="1.0" encoding="UTF-8"?>
<svg width="16px" height="16px" viewBox="0 0 16 16" version="1.1" xmlns="http://www.w3.org/2000/svg" xmlns:xlink="http://www.w3.org/1999/xlink">
    <title>social-youtube</title>
    <g id="social-youtube" stroke="none" stroke-width="1" fill="none" fill-rule="evenodd">
        <path d="M15.841,4.8 C15.841,4.8 15.685,3.697 15.204,3.213 C14.595,2.576 13.913,2.572 13.601,2.535 C11.364,2.372 8.004,2.372 8.004,2.372 L7.998,2.372 C7.998,2.372 4.639,2.372 2.401,2.535 C2.088,2.573 1.407,2.576 0.798,3.213 C0.317,3.697 0.164,4.8 0.164,4.8 C0.164,4.8 0.005,6.094 0.005,7.391 L0.005,8.604 C0.005,9.898 0.164,11.195 0.164,11.195 C0.164,11.195 0.32,12.298 0.798,12.783 C1.407,13.42 2.207,13.399 2.564,13.467 C3.845,13.589 8.005,13.626 8.005,13.626 C8.005,13.626 11.368,13.62 13.605,13.46 C13.918,13.423 14.599,13.419 15.208,12.782 C15.689,12.298 15.845,11.194 15.845,11.194 C15.845,11.194 16.004,9.9 16.004,8.603 L16.004,7.39 C16.001,6.096 15.842,4.799 15.842,4.799 L15.841,4.8 Z M6.347,10.075 L6.347,5.578 L10.669,7.834 L6.347,10.075 Z" id="Shape" fill="#A3C5CF" fill-rule="nonzero"></path>
    </g>
</svg>