<?xml version="1.0" encoding="UTF-8"?>
<svg width="16px" height="16px" viewBox="0 0 16 16" version="1.1" xmlns="http://www.w3.org/2000/svg" xmlns:xlink="http://www.w3.org/1999/xlink">
    <title>social-twitter</title>
    <g id="social-twitter" stroke="none" stroke-width="1" fill="none" fill-rule="evenodd">
        <path d="M16.004,3.0365 C15.416,3.2995 14.782,3.4745 14.12,3.5525 C14.798,3.1465 15.317,2.5025 15.564,1.7365 C14.93,2.1115 14.226,2.3865 13.48,2.5335 C12.88,1.8955 12.027,1.4995 11.083,1.4995 C9.27,1.4995 7.802,2.9685 7.802,4.7805 C7.802,5.0365 7.83,5.2865 7.886,5.5275 C5.158,5.3895 2.739,4.0835 1.12,2.0965 C0.839,2.5805 0.676,3.1465 0.676,3.7465 C0.676,4.8845 1.254,5.8905 2.135,6.4775 C1.597,6.4615 1.091,6.3115 0.647,6.0685 C0.647,6.0815 0.647,6.0965 0.647,6.1095 C0.647,7.7005 1.778,9.0285 3.281,9.3285 C3.006,9.4035 2.715,9.4445 2.415,9.4445 C2.203,9.4445 1.999,9.4225 1.796,9.3855 C2.215,10.6885 3.427,11.6385 4.862,11.6665 C3.737,12.5475 2.324,13.0725 0.784,13.0725 C0.518,13.0725 0.259,13.0565 -4.79616347e-14,13.0255 C1.456,13.9595 3.181,14.5005 5.034,14.5005 C11.071,14.5005 14.375,9.4975 14.375,5.1595 C14.375,5.0155 14.372,4.8755 14.366,4.7345 C15.007,4.2755 15.563,3.6965 16.003,3.0375 L16.004,3.0365 Z" id="Path" fill="#A3C5CF" fill-rule="nonzero"></path>
    </g>
</svg>