<?xml version="1.0" encoding="UTF-8"?>
<svg width="16px" height="16px" viewBox="0 0 16 16" version="1.1" xmlns="http://www.w3.org/2000/svg" xmlns:xlink="http://www.w3.org/1999/xlink">
    <title>social-tumblr</title>
    <g id="social-tumblr" stroke="none" stroke-width="1" fill="none" fill-rule="evenodd">
        <path d="M12.9757039,12.1565686 C12.8762582,12.1029073 12.7551509,12.108138 12.6606898,12.1702917 C11.9456156,12.6403206 11.2206953,12.8786582 10.5058673,12.8786582 C10.1217457,12.8786582 9.79171619,12.7928739 9.49565579,12.6155822 C9.29442579,12.4964442 9.10747266,12.2881374 9.04045754,12.1070919 C8.97541163,11.9349695 8.97615009,11.4715866 8.9771347,10.8302968 L8.97744239,6.91997338 L12.226353,6.91997338 C12.3963216,6.91997338 12.5340441,6.7821893 12.5340441,6.61228226 L12.5340441,3.8647236 C12.5340441,3.69481656 12.3963216,3.55703247 12.226353,3.55703247 L8.97744239,3.55703247 L8.97744239,0.307691124 C8.97744239,0.137784085 8.83971985,0 8.66975127,0 L6.48108277,0 C6.32551413,0 6.19443771,0.11612263 6.17560702,0.270583575 C6.08416121,1.02313453 5.91357726,1.64799366 5.66810128,2.12879181 C5.42871758,2.60263614 5.1048419,3.01500379 4.70496652,3.35494094 C4.38459852,3.62817066 3.83616986,3.89253887 3.07481894,4.14072254 C2.94817328,4.18201468 2.86251207,4.300045 2.86251207,4.43327526 L2.86251207,6.6123438 C2.86251207,6.78225084 3.00023461,6.92003492 3.17020319,6.92003492 L4.95191942,6.92003492 L4.95191942,12.0071538 C4.95191942,12.7567509 5.0314268,13.3208103 5.19511848,13.7318241 C5.36188707,14.149361 5.65794747,14.5425287 6.07529971,14.9006196 C6.48582121,15.2523721 6.98545006,15.5275095 7.56194015,15.7189549 C8.1208303,15.9012311 8.56593628,16 9.31645648,16 C9.95091557,16 10.5556517,15.9342156 11.1141726,15.80437 C11.6631551,15.6762474 12.2844451,15.4498483 12.9608117,15.131511 C13.0686882,15.080742 13.1374879,14.9723116 13.1374879,14.8531121 L13.1374879,12.4274599 C13.1373649,12.3142911 13.0753343,12.2102915 12.9757039,12.1565686 Z" id="Path" fill="#A3C5CF" fill-rule="nonzero"></path>
    </g>
</svg>