<?xml version="1.0" encoding="UTF-8"?>
<svg width="16px" height="16px" viewBox="0 0 16 16" version="1.1" xmlns="http://www.w3.org/2000/svg" xmlns:xlink="http://www.w3.org/1999/xlink">
    <title>social-facebook</title>
    <g id="social-facebook" stroke="none" stroke-width="1" fill="none" fill-rule="evenodd">
        <path d="M12.1534694,0.115918367 L12.1534694,2.65469388 L10.644898,2.65469388 C10.0930612,2.65469388 9.72244898,2.77061224 9.52979592,3.00081633 C9.33714286,3.23102041 9.24081633,3.57714286 9.24081633,4.03918367 L9.24081633,5.85632653 L12.0587755,5.85632653 L11.6832653,8.70204082 L9.24081633,8.70204082 L9.24081633,16 L6.29877551,16 L6.29877551,8.70204082 L3.84653061,8.70204082 L3.84653061,5.85632653 L6.29877551,5.85632653 L6.29877551,3.76 C6.29877551,2.56816327 6.63183673,1.64244898 7.29959184,0.986122449 C7.96408163,0.328163265 8.8522449,0 9.96081633,0 C10.9044898,0 11.6342857,0.0391836735 12.1534694,0.115918367 L12.1534694,0.115918367 Z" id="Path" fill="#A3C5CF" fill-rule="nonzero"></path>
    </g>
</svg>