<?xml version="1.0" encoding="UTF-8"?>
<svg width="16px" height="16px" viewBox="0 0 16 16" version="1.1" xmlns="http://www.w3.org/2000/svg" xmlns:xlink="http://www.w3.org/1999/xlink">
    <title>social-instagram</title>
    <g id="social-instagram" stroke="none" stroke-width="1" fill="none" fill-rule="evenodd">
        <path d="M5.33376414,8 C5.33376414,6.5273021 6.5273021,5.33311793 8,5.33311793 C9.4726979,5.33311793 10.6668821,6.5273021 10.6668821,8 C10.6668821,9.4726979 9.4726979,10.6668821 8,10.6668821 C6.5273021,10.6668821 5.33376414,9.4726979 5.33376414,8 M3.89208401,8 C3.89208401,10.2688207 5.73117932,12.107916 8,12.107916 C10.2688207,12.107916 12.107916,10.2688207 12.107916,8 C12.107916,5.73117932 10.2688207,3.89208401 8,3.89208401 C5.73117932,3.89208401 3.89208401,5.73117932 3.89208401,8 M11.3105008,3.72924071 C11.3105008,4.25912763 11.7402262,4.68949919 12.2707593,4.68949919 C12.8006462,4.68949919 13.2310178,4.25912763 13.2310178,3.72924071 C13.2310178,3.1993538 12.8012924,2.76962843 12.2707593,2.76962843 C11.7402262,2.76962843 11.3105008,3.1993538 11.3105008,3.72924071 M4.76768982,14.5117932 C3.98772213,14.476252 3.5638126,14.3463651 3.28206785,14.2365105 C2.9085622,14.0911147 2.64232633,13.9179321 2.36187399,13.638126 C2.08206785,13.3583199 1.9082391,13.092084 1.7634895,12.7185784 C1.65363489,12.4368336 1.52374798,12.0129241 1.48820679,11.2329564 C1.44943457,10.3896607 1.44168013,10.1363489 1.44168013,8 C1.44168013,5.86365105 1.45008078,5.61098546 1.48820679,4.76704362 C1.52374798,3.98707593 1.6542811,3.5638126 1.7634895,3.28142165 C1.9088853,2.90791599 2.08206785,2.64168013 2.36187399,2.36122779 C2.64168013,2.08142165 2.90791599,1.90759289 3.28206785,1.7628433 C3.5638126,1.65298869 3.98772213,1.52310178 4.76768982,1.48756058 C5.61098546,1.44878837 5.86429725,1.44103393 8,1.44103393 C10.1363489,1.44103393 10.3890145,1.44943457 11.2329564,1.48756058 C12.0129241,1.52310178 12.4361874,1.65363489 12.7185784,1.7628433 C13.092084,1.90759289 13.3583199,2.08142165 13.6387722,2.36122779 C13.9185784,2.64103393 14.0917609,2.90791599 14.2371567,3.28142165 C14.3470113,3.5631664 14.4768982,3.98707593 14.5124394,4.76704362 C14.5512116,5.61098546 14.5589661,5.86365105 14.5589661,8 C14.5589661,10.1357027 14.5512116,10.3890145 14.5124394,11.2329564 C14.4768982,12.0129241 14.3463651,12.4368336 14.2371567,12.7185784 C14.0917609,13.092084 13.9185784,13.3583199 13.6387722,13.638126 C13.3589661,13.9179321 13.092084,14.0911147 12.7185784,14.2365105 C12.4368336,14.3463651 12.0129241,14.476252 11.2329564,14.5117932 C10.3896607,14.5505654 10.1363489,14.5583199 8,14.5583199 C5.86429725,14.5583199 5.61098546,14.5505654 4.76768982,14.5117932 M4.70177706,0.0484652666 C3.85008078,0.0872374798 3.26849758,0.222294023 2.75993538,0.42003231 C2.23392569,0.624232633 1.78804523,0.89822294 1.34281099,1.34281099 C0.89822294,1.78739903 0.624232633,2.23327948 0.42003231,2.75993538 C0.222294023,3.26849758 0.0872374798,3.85008078 0.0484652666,4.70177706 C0.00904684976,5.55476575 0,5.82746365 0,8 C0,10.1725363 0.00904684976,10.4452342 0.0484652666,11.2982229 C0.0872374798,12.1499192 0.222294023,12.7315024 0.42003231,13.2400646 C0.624232633,13.7660743 0.897576737,14.212601 1.34281099,14.657189 C1.78739903,15.1017771 2.23327948,15.3751212 2.75993538,15.5799677 C3.26914378,15.777706 3.85008078,15.9127625 4.70177706,15.9515347 C5.55541195,15.9903069 5.82746365,16 8,16 C10.1731826,16 10.4452342,15.9909532 11.2982229,15.9515347 C12.1499192,15.9127625 12.7315024,15.777706 13.2400646,15.5799677 C13.7660743,15.3751212 14.2119548,15.1017771 14.657189,14.657189 C15.1017771,14.212601 15.3751212,13.7660743 15.5799677,13.2400646 C15.777706,12.7315024 15.9134087,12.1499192 15.9515347,11.2982229 C15.9903069,10.444588 15.9993538,10.1725363 15.9993538,8 C15.9993538,5.82746365 15.9903069,5.55476575 15.9515347,4.70177706 C15.9127625,3.85008078 15.777706,3.26849758 15.5799677,2.75993538 C15.3751212,2.23392569 15.1017771,1.78804523 14.657189,1.34281099 C14.212601,0.89822294 13.7660743,0.624232633 13.2407108,0.42003231 C12.7315024,0.222294023 12.1499192,0.0865912763 11.2988691,0.0484652666 C10.4458805,0.00969305331 10.1731826,0 8.0006462,0 C5.82746365,0 5.55541195,0.00904684976 4.70177706,0.0484652666" id="Shape" fill="#A3C5CF" fill-rule="nonzero"></path>
    </g>
</svg>