<?xml version="1.0" encoding="UTF-8"?>
<svg width="16px" height="16px" viewBox="0 0 16 16" version="1.1" xmlns="http://www.w3.org/2000/svg" xmlns:xlink="http://www.w3.org/1999/xlink">
    <title>social-pinterest</title>
    <g id="social-pinterest" stroke="none" stroke-width="1" fill="none" fill-rule="evenodd">
        <path d="M8,0.0788571429 C3.62514286,0.0788571429 0.0788571429,3.62514286 0.0788571429,8 C0.0788571429,11.3577143 2.168,14.2217143 5.11428571,15.3748571 C5.04685714,14.7497143 4.98171429,13.7851429 5.14285714,13.1028571 C5.28571429,12.4845714 6.072,9.16685714 6.072,9.16685714 C6.072,9.16685714 5.83657143,8.69142857 5.83657143,7.992 C5.83657143,6.89142857 6.47542857,6.06742857 7.26857143,6.06742857 C7.944,6.06742857 8.272,6.57485714 8.272,7.18171429 C8.272,7.86057143 7.84,8.87771429 7.61485714,9.81714286 C7.42514286,10.6068571 8.008,11.2491429 8.78628571,11.2491429 C10.1931429,11.2491429 11.2754286,9.76342857 11.2754286,7.62057143 C11.2754286,5.72457143 9.91085714,4.39885714 7.968,4.39885714 C5.71428571,4.39885714 4.39314286,6.088 4.39314286,7.83771429 C4.39314286,8.52 4.65371429,9.248 4.98285714,9.64457143 C5.04685714,9.72342857 5.05828571,9.79085714 5.03657143,9.87314286 C4.976,10.1234286 4.84342857,10.6628571 4.81485714,10.7725714 C4.77942857,10.9188571 4.70057143,10.9474286 4.55085714,10.88 C3.56114286,10.4194286 2.944,8.97257143 2.944,7.81257143 C2.944,5.312 4.75771429,3.01942857 8.176,3.01942857 C10.9222857,3.01942857 13.0582857,4.976 13.0582857,7.59428571 C13.0582857,10.3234286 11.3371429,12.5234286 8.94742857,12.5234286 C8.144,12.5234286 7.39085714,12.1051429 7.13257143,11.6125714 C7.13257143,11.6125714 6.736,13.1234286 6.64,13.4948571 C6.46171429,14.184 5.97942857,15.0445714 5.65485714,15.5702857 C6.39771429,15.7988571 7.18285714,15.9234286 8.00114286,15.9234286 C12.376,15.9234286 15.9222857,12.3771429 15.9222857,8.00228571 C15.9222857,3.624 12.376,0.0777142857 8.00114286,0.0777142857 L8,0.0788571429 Z" id="Path" fill="#A3C5CF" fill-rule="nonzero"></path>
    </g>
</svg>