<?xml version="1.0" encoding="UTF-8"?>
<svg width="16px" height="16px" viewBox="0 0 16 16" version="1.1" xmlns="http://www.w3.org/2000/svg" xmlns:xlink="http://www.w3.org/1999/xlink">
    <title>social-linkedin</title>
    <g id="social-linkedin" stroke="none" stroke-width="1" fill="none" fill-rule="evenodd">
        <path d="M5.71428571,5.71428571 L8.87657143,5.71428571 L8.87657143,7.33485714 L8.92228571,7.33485714 C9.36228571,6.54514286 10.4388571,5.71428571 12.0445714,5.71428571 C15.3828571,5.71428571 16,7.792 16,10.4948571 L16,16 L12.7028571,16 L12.7028571,11.12 C12.7028571,9.95657143 12.6788571,8.45828571 10.9885714,8.45828571 C9.272,8.45828571 9.00914286,9.72571429 9.00914286,11.0354286 L9.00914286,16 L5.71428571,16 L5.71428571,5.71428571 Z" id="Path" fill="#A3C5CF" fill-rule="nonzero"></path>
        <polygon id="Path" fill="#A3C5CF" fill-rule="nonzero" points="-2.59792188e-14 5.71428571 3.42857143 5.71428571 3.42857143 16 -2.59792188e-14 16"></polygon>
        <path d="M3.42857143,2.85714286 C3.42857143,3.80342857 2.66057143,4.57142857 1.71428571,4.57142857 C0.768,4.57142857 -2.59792188e-14,3.80342857 -2.59792188e-14,2.85714286 C-2.59792188e-14,1.91085714 0.768,1.14285714 1.71428571,1.14285714 C2.66057143,1.14285714 3.42857143,1.91085714 3.42857143,2.85714286 Z" id="Path" fill="#A3C5CF" fill-rule="nonzero"></path>
    </g>
</svg>